<?xml version="1.0" encoding="UTF-8"?>
<svg width="100pt" height="100pt" version="1.1" viewBox="0 0 100 100" xmlns="http://www.w3.org/2000/svg">
    <g>
        <path d="m78.914 15.523h-6.6719v-6.668h-4.4492v6.6719l-35.586-0.003906v-6.668h-4.4492v6.6719l-6.6719-0.003906c-6.1328 0-11.121 4.9883-11.121 11.121v53.379c0 6.1328 4.9883 11.121 11.121 11.121h57.824c6.1328 0 11.121-4.9883 11.121-11.121l0.003906-42.258v-11.121c0-6.1289-4.9883-11.121-11.121-11.121zm6.6719 64.5c0 3.6797-2.9922 6.6719-6.6719 6.6719h-57.828c-3.6797 0-6.6719-2.9922-6.6719-6.6719l0.003907-42.258h71.172zm0-46.703h-71.172v-6.6758c0-3.6797 2.9922-6.6719 6.6719-6.6719h6.6719v4.4492l4.4492 0.003906v-4.4492h35.586v4.4492h4.4492l0.003906-4.4492h6.6719c3.6797 0 6.6719 2.9922 6.6719 6.6719z"/>
        <path d="m45.551 60.008h8.8945c2.4531 0 4.4492-1.9961 4.4492-4.4492v-8.8945c0-2.4531-1.9961-4.4492-4.4492-4.4492h-8.8945c-2.4531 0-4.4492 1.9961-4.4492 4.4492v8.8945c0.003907 2.4531 2 4.4492 4.4492 4.4492zm0-13.344h8.8945l0.003907 8.8945h-8.8984z"/>
        <path d="m67.793 60.008h8.8945c2.4531 0 4.4492-1.9961 4.4492-4.4492v-8.8945c0-2.4531-1.9961-4.4492-4.4492-4.4492l-8.8945-0.003906c-2.4531 0-4.4492 1.9961-4.4492 4.4492v8.8945c0.003906 2.457 1.9961 4.4531 4.4492 4.4531zm0-13.344h8.8945l0.003906 8.8945h-8.8984z"/>
        <path d="m23.312 82.25h8.8945c2.4531 0 4.4492-1.9961 4.4492-4.4492v-8.8945c0-2.4531-1.9961-4.4492-4.4492-4.4492l-8.8945-0.003906c-2.4531 0-4.4492 1.9961-4.4492 4.4492v8.8945c0 2.457 1.9961 4.4531 4.4492 4.4531zm0-13.348h8.8945l0.003907 8.8945-8.8984 0.003906z"/>
        <path d="m45.551 82.25h8.8945c2.4531 0 4.4492-1.9961 4.4492-4.4492v-8.8945c0-2.4531-1.9961-4.4492-4.4492-4.4492h-8.8945c-2.4531 0-4.4492 1.9961-4.4492 4.4492v8.8945c0.003907 2.4531 2 4.4492 4.4492 4.4492zm0-13.348h8.8945l0.003907 8.8945h-8.8984z"/>
        <path d="m67.793 82.25h8.8945c2.4531 0 4.4492-1.9961 4.4492-4.4492v-8.8945c0-2.4531-1.9961-4.4492-4.4492-4.4492l-8.8945-0.003906c-2.4531 0-4.4492 1.9961-4.4492 4.4492v8.8945c0.003906 2.457 1.9961 4.4531 4.4492 4.4531zm0-13.348h8.8945l0.003906 8.8945-8.8984 0.003906z"/>
    </g>
</svg>
