<svg width="100pt" height="100pt" viewBox="0 0 100 100" xmlns="http://www.w3.org/2000/svg">
    <path d="M90.629 46.301a8.682 8.682 0 0 0-3.11.469 8.557 8.557 0 0 0-10.77-4.899 8.58 8.58 0 0 0-6.32-5.222 8.705 8.705 0 0 0-5 .55l-.488-18.422v.004a8.561 8.561 0 0 0-7.281-8.25 8.39 8.39 0 0 0-9.5 8.07l-1.281 43.57A4.869 4.869 0 0 1 45.6 61l-3.37-5.781a13.5 13.5 0 0 0-13.392-6.508 5.82 5.82 0 0 0-4.39 8.46l12.91 25a13.019 13.019 0 0 0 5.062 5.25l.29.141 6.468 2.68.191.07v-.004a4.003 4.003 0 0 1 2.508 2.473l.672 2a2.503 2.503 0 0 0 3.164 1.531 2.505 2.505 0 0 0 1.567-3.152l-.672-2a8.998 8.998 0 0 0-5.61-5.582L44.77 83a8.046 8.046 0 0 1-3-3.149l-12.91-25a.82.82 0 0 1 .621-1.191 8.488 8.488 0 0 1 8.43 4.09l3.449 5.91c.047.086.101.168.16.25 2.191 2.898 6 4.762 9.16 2.7a2.497 2.497 0 0 0 1.121-2l1.309-45.872a3.41 3.41 0 0 1 3.89-3.25 3.527 3.527 0 0 1 2.93 3.442L60.55 43a2.5 2.5 0 0 0 4.828.828 3.655 3.655 0 0 1 4.122-2.27 3.805 3.805 0 0 1 2.921 3.781V46a2.49 2.49 0 0 0 1.625 2.344 2.493 2.493 0 0 0 2.762-.703 3.609 3.609 0 0 1 3.281-1.219 3.773 3.773 0 0 1 3.11 3.829v.648c0 1.047.648 1.98 1.625 2.348.98.363 2.082.082 2.765-.707a3.663 3.663 0 0 1 2.871-1.258A3.829 3.829 0 0 1 94 55.238V75c0 6-3.86 10.64-5.52 12.34a10.146 10.146 0 0 0-2.332 3.719l-.719 2a2.508 2.508 0 0 0 .035 1.972 2.497 2.497 0 0 0 1.45 1.332 2.51 2.51 0 0 0 1.964-.129 2.51 2.51 0 0 0 1.262-1.515l.719-2a5.195 5.195 0 0 1 1.191-1.89C94.648 88.191 99 82.601 99 75V55.238a8.857 8.857 0 0 0-8.372-8.937zM34.141 5.879a2.5 2.5 0 0 0-3.5.473L7.789 36.219a2.5 2.5 0 1 0 4 3l22.82-29.84a2.5 2.5 0 0 0-.469-3.5z"/>
    <path d="M32.672 42h.578a8.149 8.149 0 0 0 8.149-8.102v-2.386a8.145 8.145 0 0 0-8.137-8.14h-.582c-4.492.003-8.133 3.644-8.14 8.14v2.386A8.15 8.15 0 0 0 32.671 42zm-3.14-10.488a3.146 3.146 0 0 1 3.14-3.14h.578a3.15 3.15 0 0 1 3.14 3.14v2.387A3.15 3.15 0 0 1 33.25 37h-.578a3.146 3.146 0 0 1-3.14-3.14zM9.14 22.238h.579a8.145 8.145 0 0 0 8.14-8.137v-2.39A8.15 8.15 0 0 0 9.73 3.558h-.59A8.153 8.153 0 0 0 1 11.711v2.39c.004 4.492 3.648 8.133 8.14 8.137zM6 11.711a3.15 3.15 0 0 1 3.14-3.152h.579a3.15 3.15 0 0 1 3.14 3.14v2.403a3.145 3.145 0 0 1-3.14 3.136H9.14A3.145 3.145 0 0 1 6 14.102z"/>
</svg>